<?xml version="1.0" encoding="utf-8"?>
<!-- Generator: Adobe Illustrator 16.0.0, SVG Export Plug-In . SVG Version: 6.00 Build 0)  -->
<!DOCTYPE svg PUBLIC "-//W3C//DTD SVG 1.1//EN" "http://www.w3.org/Graphics/SVG/1.1/DTD/svg11.dtd">
<svg version="1.1" id="Layer_1" xmlns="http://www.w3.org/2000/svg" xmlns:xlink="http://www.w3.org/1999/xlink" x="0px" y="0px"
	 width="349.708px" height="98.603px" viewBox="0 0 349.708 98.603" enable-background="new 0 0 349.708 98.603"
	 xml:space="preserve">
<path fill="#353536" d="M186.401,88.578c0,1.3-0.294,2.337-0.883,3.111c-0.588,0.772-1.398,1.158-2.432,1.158
	c-0.605,0-1.136-0.113-1.594-0.345c-0.457-0.229-0.831-0.556-1.12-0.979v4.496h-0.963V83.993h0.738l0.177,1.356
	c0.289-0.48,0.664-0.854,1.124-1.119s1.001-0.397,1.623-0.397c1.043,0,1.859,0.416,2.447,1.248c0.589,0.833,0.883,1.942,0.883,3.328
	V88.578z M185.438,88.409c0-1.103-0.219-2.002-0.658-2.698c-0.438-0.695-1.08-1.043-1.927-1.043c-0.637,0-1.157,0.152-1.562,0.457
	c-0.404,0.305-0.71,0.702-0.919,1.189v4.205c0.225,0.473,0.543,0.843,0.956,1.112c0.412,0.271,0.926,0.406,1.542,0.406
	c0.84,0,1.478-0.315,1.914-0.948c0.437-0.631,0.654-1.469,0.654-2.512V88.409z M188.024,88.208c0-1.279,0.35-2.328,1.051-3.147
	s1.63-1.228,2.786-1.228c1.161,0,2.092,0.408,2.794,1.228c0.701,0.819,1.052,1.868,1.052,3.147v0.265
	c0,1.284-0.35,2.335-1.048,3.151c-0.699,0.815-1.626,1.224-2.781,1.224c-1.168,0-2.102-0.408-2.803-1.224
	c-0.701-0.816-1.051-1.867-1.051-3.151V88.208z M188.987,88.473c0,1.006,0.254,1.853,0.762,2.537
	c0.51,0.685,1.219,1.026,2.129,1.026c0.893,0,1.596-0.342,2.106-1.026c0.512-0.685,0.767-1.531,0.767-2.537v-0.265
	c0-0.99-0.257-1.832-0.771-2.521c-0.515-0.689-1.22-1.036-2.119-1.036s-1.603,0.347-2.112,1.036
	c-0.508,0.689-0.762,1.531-0.762,2.521V88.473z M197.995,83.994h-1.027l2.52,8.686h0.827l1.927-5.94l0.346-1.405h0.048l0.346,1.405
	l1.967,5.94h0.818l2.528-8.686h-1.026l-1.55,5.868L205.34,91.5h-0.049l-0.401-1.638l-1.847-5.868h-0.826l-1.846,5.868l-0.402,1.59
	h-0.049l-0.336-1.59L197.995,83.994z M213.456,92.849c-1.123,0-2.035-0.398-2.737-1.193c-0.701-0.795-1.051-1.815-1.051-3.063
	v-0.441c0-1.252,0.354-2.285,1.063-3.1c0.709-0.813,1.588-1.22,2.637-1.22c1.055,0,1.869,0.339,2.444,1.017
	c0.576,0.676,0.864,1.588,0.864,2.732v0.747h-6.046v0.265c0,0.99,0.25,1.813,0.751,2.465c0.5,0.652,1.191,0.979,2.074,0.979
	c0.531,0,1.018-0.087,1.462-0.261s0.813-0.408,1.108-0.703l0.409,0.658c-0.305,0.321-0.706,0.588-1.2,0.799
	C214.739,92.743,214.147,92.849,213.456,92.849 M213.368,84.652c-0.738,0-1.346,0.265-1.821,0.795
	c-0.478,0.529-0.755,1.201-0.835,2.015l0.023,0.048h4.978v-0.201c0-0.771-0.202-1.406-0.606-1.906S214.124,84.652,213.368,84.652
	 M222.706,83.921c-0.07-0.021-0.158-0.041-0.266-0.061c-0.106-0.02-0.22-0.027-0.338-0.027c-0.582,0-1.086,0.149-1.509,0.448
	c-0.423,0.3-0.76,0.718-1.012,1.252v-0.096l-0.12-1.445h-0.844v8.688h0.964v-5.997c0.166-0.596,0.442-1.061,0.831-1.401
	c0.388-0.34,0.885-0.51,1.49-0.51l0.682,0.048L222.706,83.921z M227.381,92.849c-1.124,0-2.035-0.398-2.738-1.193
	c-0.701-0.795-1.051-1.815-1.051-3.063v-0.441c0-1.252,0.354-2.285,1.064-3.1c0.709-0.813,1.588-1.22,2.637-1.22
	c1.055,0,1.869,0.339,2.443,1.017c0.576,0.676,0.865,1.588,0.865,2.732v0.747h-6.047v0.265c0,0.99,0.25,1.813,0.752,2.465
	c0.5,0.652,1.191,0.979,2.074,0.979c0.53,0,1.018-0.087,1.461-0.261c0.444-0.174,0.814-0.408,1.108-0.703l0.409,0.658
	c-0.305,0.321-0.705,0.588-1.2,0.799C228.665,92.743,228.073,92.849,227.381,92.849 M227.293,84.652
	c-0.738,0-1.346,0.265-1.822,0.795c-0.477,0.529-0.755,1.201-0.834,2.015l0.022,0.048h4.978v-0.201c0-0.771-0.201-1.406-0.605-1.906
	S228.048,84.652,227.293,84.652 M232.167,88.408c0-1.385,0.293-2.494,0.879-3.326s1.403-1.249,2.453-1.249
	c0.594,0,1.113,0.126,1.562,0.377c0.446,0.252,0.817,0.608,1.112,1.067v-5.121h0.963v12.523h-0.787l-0.137-1.261
	c-0.295,0.461-0.67,0.813-1.123,1.062c-0.455,0.244-0.99,0.368-1.606,0.368c-1.038,0-1.851-0.387-2.437-1.159
	c-0.586-0.774-0.879-1.812-0.879-3.111V88.408z M233.129,88.578c0,1.049,0.211,1.884,0.631,2.505s1.053,0.931,1.898,0.931
	c0.621,0,1.137-0.138,1.549-0.413c0.412-0.276,0.733-0.657,0.965-1.144v-4.119c-0.221-0.492-0.53-0.895-0.933-1.204
	c-0.401-0.312-0.923-0.466-1.565-0.466c-0.846,0-1.481,0.347-1.906,1.04c-0.426,0.692-0.639,1.593-0.639,2.7V88.578z
	 M252.695,88.578c0,1.3-0.295,2.337-0.884,3.111c-0.588,0.772-1.398,1.158-2.432,1.158c-0.633,0-1.18-0.127-1.643-0.381
	s-0.839-0.615-1.128-1.088l-0.16,1.301h-0.755V80.156h0.963v5.17c0.289-0.477,0.659-0.844,1.108-1.104
	c0.45-0.26,0.981-0.39,1.598-0.39c1.044,0,1.86,0.416,2.448,1.248c0.589,0.833,0.884,1.942,0.884,3.328V88.578z M251.723,88.409
	c0-1.108-0.215-2.009-0.643-2.701c-0.428-0.694-1.062-1.04-1.902-1.04c-0.663,0-1.199,0.162-1.605,0.486
	c-0.406,0.322-0.712,0.742-0.916,1.256v3.975c0.215,0.502,0.531,0.899,0.952,1.191c0.42,0.292,0.948,0.438,1.585,0.438
	c0.841,0,1.473-0.311,1.895-0.931c0.424-0.621,0.635-1.456,0.635-2.505V88.409z M254.843,83.994h-1.067l3.355,8.573l-0.457,1.173
	c-0.177,0.465-0.391,0.846-0.643,1.144c-0.252,0.297-0.586,0.446-1.004,0.446c-0.063,0-0.166-0.008-0.309-0.021
	c-0.142-0.015-0.244-0.026-0.309-0.036l-0.112,0.803c0.075,0.026,0.192,0.053,0.353,0.076c0.162,0.024,0.297,0.036,0.41,0.036
	c0.69,0,1.215-0.206,1.573-0.618s0.65-0.912,0.875-1.502l3.772-10.074h-1.075l-2.625,7.369h-0.048l-0.305-1.035L254.843,83.994z
	 M280.129,92.835c3,0,5.26-0.982,7.029-2.828c1.816-1.82,2.383-4.374,2.383-6.438c0-0.643-0.051-1.23-0.15-1.723h-9.262v2.752h6.588
	c-0.198,1.549-0.715,2.68-1.5,3.465c-0.959,0.959-2.459,2.016-5.088,2.016c-4.057,0-7.226-3.268-7.226-7.319
	c0-4.054,3.172-7.319,7.226-7.319c2.188,0,3.782,0.857,4.961,1.965l1.942-1.942c-1.644-1.573-3.83-2.774-6.903-2.774
	c-5.554,0-10.222,4.521-10.222,10.071C269.908,88.312,274.576,92.835,280.129,92.835 M303.753,86.39
	c0,3.713-2.909,6.449-6.474,6.449s-6.473-2.736-6.473-6.449c0-3.737,2.908-6.446,6.473-6.446S303.753,82.653,303.753,86.39
	 M300.922,86.39c0-2.32-1.688-3.908-3.643-3.908c-1.953,0-3.641,1.588-3.641,3.908c0,2.297,1.688,3.908,3.641,3.908
	C299.235,90.298,300.922,88.687,300.922,86.39 M317.875,86.39c0,3.713-2.91,6.449-6.474,6.449c-3.565,0-6.474-2.736-6.474-6.449
	c0-3.737,2.908-6.446,6.474-6.446C314.965,79.944,317.875,82.653,317.875,86.39 M315.043,86.39c0-2.32-1.687-3.908-3.642-3.908
	s-3.641,1.588-3.641,3.908c0,2.297,1.686,3.908,3.641,3.908S315.043,88.687,315.043,86.39 M331.477,80.333v11.551
	c0,4.764-2.811,6.719-6.129,6.719c-3.127,0-5.008-2.1-5.718-3.809l2.466-1.027c0.438,1.05,1.516,2.297,3.246,2.297
	c2.127,0,3.443-1.32,3.443-3.786v-0.905h-0.1c-0.633,0.783-1.854,1.467-3.396,1.467c-3.225,0-6.18-2.809-6.18-6.424
	c0-3.64,2.955-6.473,6.18-6.473c1.538,0,2.76,0.684,3.396,1.443h0.1v-1.051h2.691V80.333z M328.984,86.413
	c0-2.272-1.515-3.931-3.442-3.931c-1.955,0-3.591,1.658-3.591,3.931c0,2.247,1.636,3.882,3.591,3.882
	C327.469,90.296,328.984,88.66,328.984,86.413 M336.209,73.882h-2.672v18.953h2.672V73.882z M347.407,88.515l2.198,1.465
	c-0.71,1.05-2.416,2.859-5.374,2.859c-3.663,0-6.398-2.832-6.398-6.451c0-3.834,2.758-6.444,6.082-6.444
	c3.347,0,4.984,2.663,5.519,4.103l0.274,0.74l-8.606,3.561c0.661,1.293,1.688,1.955,3.127,1.955
	C345.675,90.298,346.673,89.587,347.407,88.515 M340.643,86.195l5.764-2.393c-0.317-0.806-1.271-1.367-2.393-1.367
	C342.571,82.431,340.568,83.703,340.643,86.195"/>
<path fill="#F8BB15" d="M32.055,58.83c1.598,0.129,3.015,1.23,3.338,2.805c0.471,2.289-1.287,4.31-3.511,4.31H13.423
	c-0.709,0-1.284-0.57-1.284-1.274c0-0.705,0.575-1.275,1.284-1.275h18.459c0.563,0,1.021-0.454,1.021-1.014
	c0-0.559-0.458-1.014-1.021-1.014H13.193h-0.141c-0.059,0-0.117-0.006-0.173-0.014c-1.598-0.129-3.016-1.231-3.339-2.805
	c-0.471-2.289,1.287-4.31,3.512-4.31h18.83c0.563,0,1.021-0.455,1.021-1.015s-0.458-1.015-1.021-1.015h-4.156H16.031
	c-3.622,0-6.568-2.925-6.568-6.521c0-0.705,0.575-1.275,1.284-1.275s1.284,0.57,1.284,1.275c0,2.19,1.794,3.972,4,3.972h11.695
	h4.156c2.223,0,3.981,2.019,3.512,4.31c-0.323,1.573-1.741,2.676-3.339,2.805c-0.057,0.008-0.114,0.013-0.173,0.013h-0.14h-18.69
	c-0.563,0-1.021,0.456-1.021,1.015c0,0.56,0.458,1.015,1.021,1.015h18.689h0.141C31.941,58.817,31.998,58.822,32.055,58.83
	 M46.188,17.913c-0.954-1.189-1.836-2.437-2.624-3.742c-0.711-1.176-1.271-2.432-2-3.597c-1.251-2.001-2.819-3.8-4.628-5.316
	c-1.821-1.527-3.883-2.764-6.089-3.648c-2.276-0.912-4.698-1.445-7.146-1.577c-1.268-0.069-2.542-0.03-3.804,0.109
	C9.592,1.285,1.292,9.526,0.144,19.762c-1.509,13.44,9.089,24.863,22.323,24.863h9.15c1.243,0,1.285,0.723,1.287,0.751v1.217
	c0,0.704,0.574,1.274,1.283,1.274s1.284-0.57,1.284-1.274v-1.217c0-1.276-1.046-3.301-3.854-3.301h-9.15
	c-10.972,0-19.899-8.866-19.899-19.763c0-11.41,9.788-20.593,21.463-19.703c2.538,0.194,5.03,0.887,7.306,2.028
	c2.223,1.114,4.231,2.648,5.898,4.493c2.007,2.221,3.436,4.931,5.05,7.432c0.264,0.409,0.534,0.815,0.813,1.214
	c0.823,1.179,1.598,2.28,2.522,3.381c-0.982,0.269-1.988,0.549-2.81,1.149c-0.822,0.601-1.433,1.601-1.279,2.607
	c0.115,0.759,0.635,1.405,0.776,2.159c0.278,1.483-0.947,2.844-1.059,4.349c-0.077,1.035,0.38,2.1,0.081,3.095
	c-0.355,1.179-1.611,1.746-2.738,1.915c-0.673,0.1-1.359,0.073-2.037,0.073h-1.369h-0.771c-0.706,0-1.279,0.573-1.279,1.28
	c0,0.706,0.573,1.279,1.279,1.279c1.014,0,2.03,0.025,3.044,0.006c0.988-0.019,2.003-0.101,2.944-0.43
	c1.847-0.607,3.518-2.194,3.593-4.138c0.037-0.953-0.303-1.911-0.123-2.848c0.123-0.646,0.483-1.218,0.736-1.825
	c0.73-1.755,0.508-3.873-0.57-5.439c1.549-0.295,3.371-0.823,3.836-2.33C48.333,20.57,47.164,19.129,46.188,17.913 M65.688,63.139
	l-3.361-0.763V39.513l3.361-0.801V36.64H55.37v2.071l3.361,0.801v22.864l-3.361,0.763v2.071h10.318V63.139z M88.826,65.21V51.238
	c0-2.697-0.638-4.683-1.915-5.96c-1.277-1.276-3.231-1.915-5.862-1.915c-1.446,0-2.769,0.29-3.967,0.87
	c-1.199,0.58-2.13,1.397-2.794,2.453h-0.195l-0.528-2.931H70.73V65.21h3.518V54.091c0-2.749,0.498-4.732,1.495-5.951
	c0.997-1.218,2.596-1.827,4.797-1.827c1.654,0,2.869,0.427,3.645,1.28c0.775,0.854,1.163,2.152,1.163,3.898V65.21H88.826z
	 M113.566,65.21V51.238c0-2.697-0.638-4.683-1.915-5.96c-1.277-1.276-3.231-1.915-5.862-1.915c-1.446,0-2.769,0.29-3.967,0.87
	c-1.199,0.58-2.13,1.397-2.794,2.453h-0.195l-0.528-2.931H95.47V65.21h3.518V54.091c0-2.749,0.498-4.732,1.495-5.951
	c0.997-1.218,2.596-1.827,4.797-1.827c1.654,0,2.869,0.427,3.645,1.28c0.775,0.854,1.163,2.152,1.163,3.898V65.21H113.566z
	 M136.187,46.343c-1.778-1.987-4.179-2.98-7.201-2.98c-3.153,0-5.602,0.974-7.348,2.921c-1.746,1.948-2.618,4.668-2.618,8.159
	c0,2.24,0.403,4.208,1.211,5.901c0.808,1.694,1.96,2.993,3.459,3.899c1.498,0.905,3.218,1.357,5.159,1.357
	c3.126,0,5.576-0.983,7.348-2.951c1.771-1.967,2.658-4.703,2.658-8.207C138.854,51.03,137.965,48.33,136.187,46.343z
	 M128.888,46.313c2.071,0,3.645,0.681,4.719,2.042c1.075,1.361,1.612,3.39,1.612,6.087s-0.534,4.746-1.603,6.146
	s-2.625,2.1-4.67,2.1c-2.072,0-3.638-0.699-4.7-2.1s-1.592-3.449-1.592-6.146C122.654,49.023,124.731,46.313,128.888,46.313z
	 M152.837,65.21l8.149-21.457h-3.752l-4.573,12.644c-0.886,2.685-1.368,4.153-1.446,4.407s-0.146,0.488-0.205,0.703
	s-0.107,0.407-0.146,0.576h-0.157c-0.248-1.25-0.821-3.146-1.72-5.687l-4.553-12.644h-3.771l8.129,21.457H152.837z M180.196,65.21
	V50.593c0-2.501-0.632-4.326-1.896-5.472c-1.264-1.146-3.192-1.72-5.785-1.72c-1.25,0-2.515,0.163-3.791,0.489
	c-1.277,0.326-2.456,0.775-3.537,1.348l1.075,2.638c0.886-0.417,1.833-0.794,2.843-1.133c1.01-0.338,2.082-0.508,3.215-0.508
	c1.55,0,2.677,0.388,3.381,1.163c0.704,0.775,1.055,1.977,1.055,3.605v1.27l-3.635,0.137c-6.866,0.209-10.299,2.489-10.299,6.84
	c0,2.02,0.599,3.584,1.798,4.691s2.853,1.66,4.964,1.66c1.615,0,2.954-0.238,4.016-0.713c1.062-0.476,2.127-1.385,3.195-2.727h0.156
	l0.684,3.049H180.196z M167.503,61.869c-0.684-0.6-1.026-1.459-1.026-2.58c0-1.484,0.563-2.572,1.69-3.263s2.921-1.081,5.384-1.173
	l3.166-0.137v1.935c0,1.954-0.564,3.462-1.69,4.524c-1.127,1.062-2.674,1.592-4.641,1.592
	C169.148,62.767,168.188,62.468,167.503,61.869z M191.541,61.732c-0.593-0.664-0.89-1.615-0.89-2.854V46.489h6.195v-2.736h-6.195
	v-4.925h-2.09l-1.408,4.573l-3.067,1.407v1.681h3.028v12.487c0,4.417,2.098,6.625,6.293,6.625c0.703,0,1.397-0.068,2.082-0.205
	c0.684-0.137,1.188-0.276,1.514-0.42v-2.697c-0.313,0.117-0.775,0.223-1.387,0.313c-0.613,0.092-1.146,0.137-1.604,0.137
	C192.958,62.728,192.133,62.396,191.541,61.732z M201.604,39.649c0.398,0.365,0.89,0.547,1.477,0.547
	c0.547,0,1.025-0.183,1.436-0.547s0.615-0.931,0.615-1.7c0-0.782-0.205-1.349-0.615-1.7s-0.889-0.528-1.436-0.528
	c-0.587,0-1.078,0.176-1.477,0.528c-0.396,0.352-0.596,0.918-0.596,1.7C201.008,38.718,201.208,39.285,201.604,39.649z
	 M204.799,43.753h-3.518V65.21h3.518V43.753z M227.577,46.343c-1.779-1.987-4.18-2.98-7.201-2.98c-3.154,0-5.603,0.974-7.349,2.921
	c-1.745,1.948-2.618,4.668-2.618,8.159c0,2.24,0.403,4.208,1.211,5.901c0.809,1.694,1.961,2.993,3.459,3.899
	c1.498,0.905,3.219,1.357,5.16,1.357c3.126,0,5.575-0.983,7.348-2.951c1.771-1.967,2.657-4.703,2.657-8.207
	C230.244,51.03,229.354,48.33,227.577,46.343z M220.278,46.313c2.07,0,3.645,0.681,4.719,2.042c1.074,1.361,1.612,3.39,1.612,6.087
	s-0.534,4.746-1.603,6.146s-2.625,2.1-4.67,2.1c-2.072,0-3.639-0.699-4.701-2.1c-1.062-1.4-1.592-3.449-1.592-6.146
	C214.043,49.023,216.122,46.313,220.278,46.313z M253.909,65.21V51.238c0-2.697-0.638-4.683-1.914-5.96
	c-1.277-1.276-3.231-1.915-5.863-1.915c-1.445,0-2.768,0.29-3.967,0.87c-1.199,0.58-2.13,1.397-2.795,2.453h-0.195l-0.527-2.931
	h-2.834V65.21h3.518V54.091c0-2.749,0.498-4.732,1.496-5.951c0.996-1.218,2.596-1.827,4.797-1.827c1.654,0,2.869,0.427,3.645,1.28
	c0.775,0.854,1.162,2.152,1.162,3.898V65.21H253.909z M293.286,36.64h-3.596v12.077h-14.656V36.64h-3.596v28.57h3.596V51.882h14.656
	V65.21h3.596V36.64z M300.38,43.753v14.051c0,2.723,0.654,4.703,1.964,5.94c1.309,1.237,3.254,1.856,5.833,1.856
	c1.55,0,2.912-0.28,4.085-0.84c1.172-0.561,2.078-1.355,2.716-2.385h0.176l0.509,2.834h2.892V43.753h-3.537v11.178
	c0,2.723-0.501,4.697-1.505,5.922c-1.003,1.225-2.605,1.836-4.807,1.836c-1.629,0-2.831-0.42-3.605-1.26
	c-0.775-0.84-1.163-2.127-1.163-3.859V43.753H300.38z M328.873,46.606h-0.195c0.13-1.472,0.195-2.944,0.195-4.417v-7.387h-3.518
	V65.21h2.521c0.078-0.248,0.319-1.152,0.724-2.717h0.273c0.716,1.029,1.642,1.805,2.774,2.326c1.134,0.521,2.424,0.781,3.869,0.781
	c2.775,0,4.945-0.967,6.508-2.902c1.564-1.934,2.346-4.673,2.346-8.217c0-3.491-0.77-6.211-2.307-8.159s-3.719-2.922-6.547-2.922
	C332.534,43.401,330.319,44.47,328.873,46.606z M339.308,48.346c0.95,1.355,1.427,3.387,1.427,6.097
	c0,2.671-0.473,4.713-1.417,6.127c-0.944,1.413-2.382,2.119-4.31,2.119c-2.176,0-3.742-0.628-4.699-1.885
	c-0.958-1.258-1.437-3.352-1.437-6.283v-0.156c0-2.918,0.469-4.99,1.407-6.214c0.938-1.225,2.488-1.837,4.65-1.837
	C336.897,46.313,338.357,46.991,339.308,48.346z"/>
<path fill="#353536" d="M61.691,28.113l-0.993-2.556h-3.272l-0.982,2.556h-1.049l3.222-8.282h0.937l3.216,8.282H61.691z
	 M60.388,24.637l-0.925-2.499l-0.395-1.236c-0.113,0.452-0.231,0.863-0.355,1.236l-0.937,2.499H60.388z M67.982,28.113v-3.96
	c0-0.504-0.112-0.879-0.335-1.125c-0.224-0.247-0.575-0.37-1.052-0.37c-0.636,0-1.098,0.176-1.385,0.527s-0.432,0.924-0.432,1.718
	v3.21h-1.016v-6.195h0.818l0.152,0.846h0.056c0.192-0.305,0.461-0.541,0.807-0.708c0.346-0.167,0.728-0.251,1.145-0.251
	c0.76,0,1.324,0.185,1.693,0.553c0.368,0.369,0.553,0.942,0.553,1.721v4.034H67.982z M76.366,28.113h-2.979v-0.598l0.971-0.22
	v-6.601l-0.971-0.231v-0.598h2.979v0.598l-0.97,0.231v6.601l0.97,0.22V28.113z M82.042,28.113v-3.96
	c0-0.504-0.112-0.879-0.335-1.125c-0.224-0.247-0.575-0.37-1.052-0.37c-0.636,0-1.098,0.176-1.385,0.527s-0.432,0.924-0.432,1.718
	v3.21h-1.016v-6.195h0.818l0.152,0.846h0.056c0.192-0.305,0.461-0.541,0.807-0.708c0.346-0.167,0.728-0.251,1.145-0.251
	c0.76,0,1.324,0.185,1.693,0.553c0.368,0.369,0.553,0.942,0.553,1.721v4.034H82.042z M84.885,20.242
	c0-0.226,0.057-0.389,0.172-0.491s0.257-0.152,0.426-0.152c0.158,0,0.296,0.051,0.415,0.152c0.118,0.102,0.178,0.265,0.178,0.491
	c0,0.222-0.06,0.386-0.178,0.491c-0.119,0.105-0.257,0.158-0.415,0.158c-0.169,0-0.311-0.053-0.426-0.158
	C84.942,20.628,84.885,20.464,84.885,20.242z M85.979,28.113h-1.016v-6.195h1.016V28.113z M90.013,27.396
	c0.132,0,0.286-0.013,0.462-0.04s0.311-0.057,0.401-0.09v0.778c-0.094,0.042-0.24,0.082-0.438,0.122
	c-0.197,0.04-0.397,0.059-0.601,0.059c-1.211,0-1.817-0.638-1.817-1.913v-3.605h-0.875v-0.485l0.886-0.406l0.406-1.32h0.604v1.422
	h1.788v0.79h-1.788v3.577c0,0.357,0.085,0.632,0.256,0.824C89.471,27.3,89.708,27.396,90.013,27.396z M92.033,20.242
	c0-0.226,0.057-0.389,0.172-0.491s0.257-0.152,0.426-0.152c0.158,0,0.296,0.051,0.415,0.152c0.118,0.102,0.178,0.265,0.178,0.491
	c0,0.222-0.06,0.386-0.178,0.491c-0.119,0.105-0.257,0.158-0.415,0.158c-0.169,0-0.311-0.053-0.426-0.158
	C92.09,20.628,92.033,20.464,92.033,20.242z M93.127,28.113h-1.016v-6.195h1.016V28.113z M98.916,28.113l-0.197-0.88h-0.045
	c-0.309,0.388-0.616,0.65-0.923,0.787c-0.306,0.137-0.693,0.206-1.159,0.206c-0.609,0-1.087-0.16-1.433-0.479
	s-0.519-0.771-0.519-1.354c0-1.256,0.991-1.915,2.973-1.975l1.049-0.04v-0.367c0-0.47-0.102-0.817-0.304-1.041
	c-0.203-0.224-0.529-0.335-0.976-0.335c-0.328,0-0.637,0.049-0.928,0.146s-0.565,0.207-0.821,0.327l-0.311-0.762
	c0.313-0.166,0.653-0.295,1.021-0.389c0.368-0.094,0.733-0.141,1.094-0.141c0.749,0,1.305,0.166,1.67,0.497s0.547,0.857,0.547,1.58
	v4.22H98.916z M96.823,27.408c0.568,0,1.015-0.153,1.34-0.46s0.488-0.742,0.488-1.306v-0.559l-0.914,0.04
	c-0.711,0.026-1.229,0.139-1.555,0.338c-0.325,0.2-0.488,0.514-0.488,0.942c0,0.324,0.099,0.572,0.296,0.745
	C96.188,27.321,96.466,27.408,96.823,27.408z M103.644,27.396c0.132,0,0.286-0.013,0.462-0.04s0.311-0.057,0.401-0.09v0.778
	c-0.094,0.042-0.24,0.082-0.438,0.122c-0.197,0.04-0.397,0.059-0.601,0.059c-1.211,0-1.817-0.638-1.817-1.913v-3.605h-0.875v-0.485
	l0.886-0.406l0.406-1.32h0.604v1.422h1.788v0.79h-1.788v3.577c0,0.357,0.085,0.632,0.256,0.824
	C103.102,27.3,103.339,27.396,103.644,27.396z M105.664,20.242c0-0.226,0.057-0.389,0.172-0.491s0.257-0.152,0.426-0.152
	c0.158,0,0.296,0.051,0.415,0.152c0.118,0.102,0.178,0.265,0.178,0.491c0,0.222-0.06,0.386-0.178,0.491
	c-0.119,0.105-0.257,0.158-0.415,0.158c-0.169,0-0.311-0.053-0.426-0.158C105.721,20.628,105.664,20.464,105.664,20.242z
	 M106.758,28.113h-1.016v-6.195h1.016V28.113z M110.087,28.113l-2.347-6.195h1.089l1.314,3.65c0.26,0.733,0.425,1.281,0.497,1.642
	h0.045c0.012-0.049,0.025-0.104,0.042-0.167c0.017-0.062,0.037-0.129,0.059-0.203c0.023-0.073,0.162-0.497,0.417-1.272l1.32-3.65
	h1.083l-2.353,6.195H110.087z M117.224,28.226c-0.929,0-1.658-0.281-2.186-0.843c-0.528-0.563-0.792-1.336-0.792-2.322
	c0-0.993,0.246-1.784,0.739-2.373c0.493-0.588,1.159-0.883,1.998-0.883c0.778,0,1.399,0.251,1.862,0.753
	c0.462,0.502,0.694,1.182,0.694,2.04v0.615h-4.243c0.019,0.704,0.197,1.237,0.536,1.602c0.339,0.365,0.818,0.547,1.439,0.547
	c0.331,0,0.645-0.029,0.942-0.087c0.297-0.058,0.645-0.172,1.044-0.341v0.892c-0.342,0.146-0.664,0.25-0.965,0.31
	S117.634,28.226,117.224,28.226z M116.97,22.635c-0.485,0-0.869,0.156-1.151,0.468c-0.282,0.312-0.449,0.747-0.502,1.303h3.154
	c-0.008-0.579-0.141-1.02-0.4-1.32C117.811,22.785,117.444,22.635,116.97,22.635z M127.041,21.816c0.816,0,1.446,0.281,1.89,0.844
	c0.443,0.562,0.666,1.347,0.666,2.355c0,1.023-0.226,1.813-0.677,2.372c-0.451,0.559-1.077,0.838-1.878,0.838
	c-0.417,0-0.79-0.075-1.117-0.226s-0.594-0.374-0.801-0.671h-0.079c-0.117,0.451-0.187,0.713-0.209,0.784h-0.728v-8.779h1.016v2.133
	c0,0.425-0.019,0.85-0.056,1.275h0.056C125.54,22.125,126.18,21.816,127.041,21.816z M126.872,22.657
	c-0.625,0-1.072,0.177-1.343,0.53c-0.271,0.354-0.406,0.952-0.406,1.794v0.045c0,0.846,0.138,1.451,0.415,1.813
	c0.276,0.363,0.729,0.544,1.356,0.544c0.557,0,0.972-0.204,1.244-0.612c0.273-0.408,0.409-0.998,0.409-1.769
	c0-0.782-0.137-1.369-0.412-1.76C127.861,22.853,127.439,22.657,126.872,22.657z M130.141,21.918h1.089l1.337,3.526
	c0.282,0.767,0.455,1.33,0.519,1.687h0.045c0.034-0.139,0.111-0.4,0.231-0.782c0.12-0.382,0.222-0.687,0.305-0.917l1.258-3.515
	h1.095l-2.668,7.052c-0.26,0.685-0.568,1.175-0.925,1.473c-0.357,0.297-0.799,0.446-1.326,0.446c-0.282,0-0.562-0.032-0.84-0.096
	v-0.807c0.188,0.045,0.414,0.068,0.677,0.068c0.324,0,0.598-0.089,0.824-0.268s0.41-0.454,0.553-0.827l0.321-0.824L130.141,21.918z
	 M145.119,28.113l-0.598-1.963h-3.007l-0.598,1.963h-1.884l2.911-8.282h2.138l2.923,8.282H145.119z M144.104,24.683
	c-0.553-1.779-0.864-2.785-0.934-3.019c-0.069-0.233-0.119-0.417-0.149-0.553c-0.124,0.481-0.479,1.672-1.066,3.571H144.104z
	 M149.627,28.113h-1.721v-8.779h1.721V28.113z M154.569,19.864h2.567c1.17,0,2.019,0.167,2.547,0.5s0.793,0.862,0.793,1.588
	c0,0.493-0.116,0.897-0.347,1.213s-0.539,0.506-0.922,0.57v0.056c0.522,0.117,0.9,0.335,1.131,0.655
	c0.231,0.319,0.347,0.745,0.347,1.275c0,0.752-0.271,1.339-0.815,1.76c-0.543,0.421-1.281,0.632-2.214,0.632h-3.086V19.864z
	 M156.318,23.131h1.016c0.474,0,0.817-0.073,1.029-0.22c0.213-0.147,0.319-0.39,0.319-0.728c0-0.316-0.116-0.542-0.347-0.68
	c-0.231-0.137-0.597-0.206-1.098-0.206h-0.919V23.131z M156.318,24.519v2.149h1.14c0.481,0,0.837-0.092,1.066-0.276
	c0.229-0.184,0.344-0.466,0.344-0.846c0-0.685-0.489-1.027-1.467-1.027H156.318z M166.203,28.113l-0.333-0.857h-0.045
	c-0.29,0.365-0.587,0.618-0.894,0.759s-0.706,0.211-1.199,0.211c-0.606,0-1.083-0.173-1.431-0.519
	c-0.348-0.346-0.521-0.839-0.521-1.478c0-0.669,0.234-1.163,0.702-1.481s1.174-0.494,2.119-0.528l1.095-0.034V23.91
	c0-0.64-0.328-0.959-0.982-0.959c-0.504,0-1.097,0.152-1.777,0.457l-0.57-1.163c0.726-0.38,1.531-0.57,2.415-0.57
	c0.846,0,1.495,0.185,1.946,0.553s0.677,0.929,0.677,1.681v4.203H166.203z M165.695,25.19l-0.666,0.022
	c-0.5,0.015-0.873,0.105-1.117,0.271s-0.367,0.417-0.367,0.756c0,0.485,0.278,0.728,0.835,0.728c0.399,0,0.718-0.114,0.957-0.344
	s0.358-0.534,0.358-0.914V25.19z M168.273,21.805h1.884l1.19,3.549c0.102,0.309,0.171,0.673,0.209,1.094h0.034
	c0.042-0.387,0.122-0.752,0.243-1.094l1.168-3.549h1.845l-2.668,7.114c-0.245,0.658-0.593,1.151-1.047,1.479
	c-0.453,0.327-0.982,0.491-1.588,0.491c-0.297,0-0.589-0.032-0.875-0.096v-1.365c0.207,0.049,0.433,0.073,0.677,0.073
	c0.305,0,0.571-0.093,0.798-0.279c0.228-0.186,0.405-0.467,0.533-0.843l0.102-0.31L168.273,21.805z M178.406,26.854
	c0.301,0,0.662-0.065,1.083-0.197v1.281c-0.429,0.192-0.955,0.288-1.58,0.288c-0.688,0-1.189-0.174-1.503-0.522
	c-0.314-0.348-0.471-0.87-0.471-1.565v-3.041h-0.824V22.37l0.948-0.576l0.497-1.332h1.1v1.343h1.766v1.292h-1.766v3.041
	c0,0.245,0.069,0.425,0.206,0.542S178.181,26.854,178.406,26.854z M187.393,28.113l-1.985-6.471h-0.051
	c0.071,1.316,0.107,2.195,0.107,2.635v3.836h-1.563v-8.249h2.381l1.953,6.308h0.033l2.07-6.308h2.381v8.249h-1.631v-3.904
	c0-0.184,0.004-0.396,0.01-0.637c0.005-0.241,0.03-0.88,0.076-1.918h-0.051l-2.127,6.46H187.393z M194.586,20.175
	c0-0.561,0.313-0.841,0.938-0.841c0.623,0,0.936,0.28,0.936,0.841c0,0.267-0.078,0.475-0.234,0.624
	c-0.156,0.148-0.39,0.223-0.701,0.223C194.899,21.021,194.586,20.739,194.586,20.175z M196.381,28.113h-1.721v-6.308h1.721V28.113z
	 M200.844,26.854c0.301,0,0.662-0.065,1.082-0.197v1.281c-0.428,0.192-0.955,0.288-1.579,0.288c-0.688,0-1.189-0.174-1.503-0.522
	c-0.314-0.348-0.472-0.87-0.472-1.565v-3.041h-0.823V22.37l0.947-0.576l0.496-1.332h1.101v1.343h1.767v1.292h-1.767v3.041
	c0,0.245,0.069,0.425,0.206,0.542S200.618,26.854,200.844,26.854z M208.387,28.113l-0.485-2.206l-0.644-2.787h-0.051l-1.15,4.993
	h-1.852l-1.793-6.308h1.715l0.728,2.793c0.083,0.331,0.198,1.021,0.345,2.07h0.045c0.015-0.286,0.08-0.739,0.197-1.36l0.09-0.479
	l0.779-3.024h1.896l0.739,3.024c0.045,0.207,0.1,0.511,0.166,0.911c0.066,0.401,0.103,0.71,0.109,0.928h0.046
	c0.041-0.334,0.1-0.715,0.175-1.143c0.075-0.427,0.139-0.736,0.191-0.928l0.756-2.793h1.688l-1.816,6.308H208.387z M217.098,28.113
	l-0.333-0.857h-0.046c-0.289,0.365-0.587,0.618-0.894,0.759s-0.706,0.211-1.198,0.211c-0.606,0-1.083-0.173-1.432-0.519
	c-0.348-0.346-0.521-0.839-0.521-1.478c0-0.669,0.234-1.163,0.703-1.481c0.468-0.318,1.174-0.494,2.118-0.528l1.095-0.034V23.91
	c0-0.64-0.328-0.959-0.982-0.959c-0.504,0-1.096,0.152-1.777,0.457l-0.569-1.163c0.726-0.38,1.53-0.57,2.415-0.57
	c0.846,0,1.495,0.185,1.946,0.553s0.677,0.929,0.677,1.681v4.203H217.098z M216.59,25.19l-0.666,0.022
	c-0.5,0.015-0.873,0.105-1.117,0.271s-0.367,0.417-0.367,0.756c0,0.485,0.279,0.728,0.836,0.728c0.398,0,0.717-0.114,0.956-0.344
	s0.358-0.534,0.358-0.914V25.19z M225.893,28.113h-1.721v-3.684c0-0.91-0.338-1.365-1.016-1.365c-0.48,0-0.828,0.164-1.043,0.491
	s-0.322,0.857-0.322,1.591v2.968h-1.721v-8.779h1.721v1.789c0,0.139-0.013,0.466-0.039,0.981l-0.039,0.508h0.09
	c0.384-0.617,0.993-0.925,1.828-0.925c0.74,0,1.303,0.2,1.687,0.598c0.384,0.399,0.575,0.971,0.575,1.715V28.113z M227.592,20.175
	c0-0.561,0.312-0.841,0.936-0.841c0.625,0,0.938,0.28,0.938,0.841c0,0.267-0.078,0.475-0.234,0.624
	c-0.156,0.148-0.391,0.223-0.703,0.223C227.904,21.021,227.592,20.739,227.592,20.175z M229.385,28.113h-1.721v-6.308h1.721V28.113z
	 M233.188,28.226c-0.74,0-1.322-0.288-1.746-0.863c-0.423-0.575-0.635-1.373-0.635-2.392c0-1.034,0.216-1.84,0.646-2.417
	c0.431-0.577,1.023-0.866,1.779-0.866c0.795,0,1.4,0.309,1.817,0.925h0.057c-0.087-0.47-0.13-0.889-0.13-1.258v-2.02h1.727v8.779
	h-1.32l-0.333-0.818h-0.073C234.586,27.916,233.99,28.226,233.188,28.226z M233.792,26.854c0.441,0,0.764-0.127,0.969-0.383
	s0.316-0.69,0.335-1.303v-0.187c0-0.677-0.104-1.162-0.313-1.456c-0.208-0.293-0.548-0.44-1.018-0.44
	c-0.384,0-0.682,0.163-0.895,0.488c-0.213,0.326-0.318,0.798-0.318,1.419s0.107,1.086,0.321,1.396
	C233.086,26.7,233.393,26.854,233.792,26.854z M241.507,20.242c0-0.226,0.058-0.389,0.172-0.491s0.257-0.152,0.426-0.152
	c0.158,0,0.296,0.051,0.415,0.152c0.118,0.102,0.178,0.265,0.178,0.491c0,0.222-0.06,0.386-0.178,0.491
	c-0.119,0.105-0.257,0.158-0.415,0.158c-0.169,0-0.312-0.053-0.426-0.158C241.565,20.628,241.507,20.464,241.507,20.242z
	 M242.602,28.113h-1.016v-6.195h1.016V28.113z M248.786,28.113v-3.96c0-0.504-0.112-0.879-0.336-1.125
	c-0.225-0.247-0.574-0.37-1.053-0.37c-0.635,0-1.098,0.176-1.385,0.527s-0.432,0.924-0.432,1.718v3.21h-1.016v-6.195h0.818
	l0.152,0.846h0.057c0.191-0.305,0.461-0.541,0.807-0.708c0.346-0.167,0.728-0.251,1.145-0.251c0.76,0,1.324,0.185,1.693,0.553
	c0.368,0.369,0.553,0.942,0.553,1.721v4.034H248.786z M261.124,19.864v5.337c0,0.94-0.283,1.679-0.852,2.217
	c-0.568,0.538-1.355,0.807-2.363,0.807c-0.997,0-1.77-0.271-2.319-0.815c-0.55-0.543-0.823-1.287-0.823-2.231v-5.315h1.043v5.349
	c0,0.673,0.18,1.194,0.539,1.563s0.9,0.553,1.622,0.553c0.681,0,1.204-0.183,1.571-0.547s0.55-0.891,0.55-1.58v-5.337H261.124z
	 M268.423,28.113l-0.993-2.556h-3.271l-0.982,2.556h-1.049l3.221-8.282h0.938l3.215,8.282H268.423z M267.12,24.637l-0.925-2.499
	l-0.396-1.236c-0.112,0.452-0.23,0.863-0.355,1.236l-0.936,2.499H267.12z M275.245,28.113h-4.609v-8.249h4.609v0.914h-3.572v2.573
	h3.363v0.903h-3.363v2.945h3.572V28.113z"/>
</svg>
