<?xml version="1.0" encoding="utf-8"?>
<!-- Generator: Adobe Illustrator 19.2.1, SVG Export Plug-In . SVG Version: 6.00 Build 0)  -->
<svg version="1.1" xmlns="http://www.w3.org/2000/svg" xmlns:xlink="http://www.w3.org/1999/xlink" x="0px" y="0px"
	 viewBox="0 0 827.1 327" style="enable-background:new 0 0 827.1 327;" xml:space="preserve">
<style type="text/css">
	.st0{fill-rule:evenodd;clip-rule:evenodd;fill:#609954;}
	.st1{fill:#609954;}
</style>
<g id="Layer_1">
</g>
<g id="Layer_3">
</g>
<g id="The_Logo">
	<g>
		<path class="st0" d="M631.6,147c0,1,0,2-0.1,3c-2.6-24.9-24.2-44.4-50.5-44.4c-9.7,0-18.7,2.6-26.4,7.2c-4.5,2.7-8.5,6-11.9,9.8
			c-0.2-2.3-0.7-4.6-1.3-6.8c-5.8-21-28-37.6-56.4-42.2c-0.7-0.1-1.3-0.2-2-0.3c-1.1-2.5-2.3-5-3.6-7.4c-17.3-32.2-50.3-54-88.1-54
			c-45.7,0-84.3,31.8-96.8,75.4c-0.5,1.8-1,3.6-1.4,5.5c-0.8,3.5-1.5,7.1-1.9,10.8c-17.8-13-40.2-20.7-64.5-20.7
			c-49.3,0-90.7,31.8-102,74.7c1.7-53.6,46.4-96.6,101.2-96.6c18.7,0,36.2,5,51.2,13.7c14.9-43,57.7-73.1,106.4-73.1
			c45,0,85.5,25.7,103,64.6c31.7,1.9,57.8,18.1,66,39.7c8.1-5.3,17.8-8.4,28.2-8.4C608.9,97.4,631.6,119.6,631.6,147z"/>
		<g>
			<g>
				<path class="st0" d="M733.3,70.1c0-2.7-1-3.1-3.3-3.1c-6.5,0.1-13,0.3-19.5,0c-3.5-0.2-4.1,1-4.1,4.2
					c0.1,23.9,0.1,47.7,0.1,71.9c-1.6-0.5-2-1.7-2.7-2.5c-4.9-5.8-10.7-10.3-18.1-12.2c-26.8-6.7-43.8,9.2-51.8,31.3
					c-6.7,18.5-7.3,37.6-6,57c1,14.4,4.8,28,13,40.2c14.9,22.1,50.1,23.3,65.4,0.8c0.5-0.7,0.7-1.9,2.3-2c0.7,4.3,1.5,8.5,2,12.8
					c0.3,2.2,1.2,3,3.4,2.9c5.5-0.2,11-0.2,16.5,0c2.4,0.1,3-0.8,3-3.1C733.3,202.2,733.2,136.1,733.3,70.1z M706.6,174.4
					c-0.6,8.9-0.1,17.8-0.1,26.8c0,9.3,0,18.6,0,27.9c0,10.3-7.6,20.3-17.6,23.1c-12.2,3.5-22.7-1.1-28.4-12.5
					c-4.4-8.7-5.8-18.1-6.3-27.7c-0.7-14.7-0.2-29.3,4.3-43.5c1.4-4.5,3.3-8.8,6.2-12.6c7.6-9.6,21.7-11.2,31.3-3.2
					C702.6,158.3,707.2,164.9,706.6,174.4z"/>
				<path class="st0" d="M288.8,145.9c1.2-1.6,2-2.7,2.8-3.8c15.6-20.4,45.8-20.6,61.9-0.3c8.1,10.2,12.3,22.2,14.3,35
					c3.1,19.8,3.5,39.6-1.8,59.1c-2.7,10.1-7.4,19.2-14.7,26.8c-15,15.5-45.7,15.4-59.3-2.5c-0.3-0.4-0.6-0.8-0.9-1.3
					c-1.2,1.2-0.7,2.4-0.7,3.4c0,19.9-0.1,39.8,0,59.7c0,3-0.8,3.9-3.8,3.8c-6.8-0.2-13.5-0.2-20.3,0c-2.4,0.1-2.9-0.8-2.9-3
					c0.1-63.4,0.1-126.8,0-190.1c0-2.5,0.7-3.3,3.2-3.2c5.7,0.2,11.5,0.1,17.2,0c1.9,0,2.7,0.5,2.9,2.5
					C287.2,136.3,288,140.8,288.8,145.9z M343,203.3c0-1.5,0-3.1,0-4.6c-0.4-12.9-1.9-25.7-7.8-37.4c-5.2-10.4-13-14.6-24.2-13.2
					c-11.1,1.4-20.7,12.1-20.7,23.3c0,20.8,0,41.5,0,62.3c0,1.5-0.1,3,0.5,4.5c4.6,10.5,16,16.8,27.4,15.3
					c10.9-1.5,16.5-8.8,20-18.2C342.2,225,343.1,214.2,343,203.3z"/>
				<path class="st0" d="M106.5,135.8c-3.2,0-6.4-0.2-9.6,0.1c-2.7,0.2-3.4-0.8-3.5-3.4c-0.3-9-2.9-17.3-9-24.2
					c-8.8-9.8-23.3-12.8-35.8-7.6c-10.8,4.5-17.5,16.8-16.8,30.5c0.5,9.5,4.8,16.7,12.4,22.2c7.8,5.6,16.6,9.3,25.7,12.5
					c13.1,4.5,25.3,10.6,35.9,19.8c21.4,18.6,23.6,66.4-13.6,82.7c-21.6,9.5-54.6,8.4-75.9-11.6c-11.3-10.6-15.2-24-15.2-39
					c0-2,0.9-2.3,2.6-2.3c7,0.1,14,0.1,21,0c2.1,0,2.6,0.8,2.6,2.7c0.1,3.6,0.5,7.1,1.4,10.6c4.4,17.1,20.8,27.4,39.1,24.8
					c13.7-2,22.3-9,25.4-20.9c3.6-14-0.7-27.3-11.3-35.3c-6.7-5-14.2-8.4-22.1-11c-11.5-3.8-22.6-8.5-32.8-15.3
					C7.5,157.8,1.6,139.2,6.4,117.3c4.7-21,19.3-33.2,39.8-37.7c18.6-4.1,36.7-2.3,52.4,9.7c14.4,10.9,21,25.8,21.1,43.8
					c0,2.1-0.6,3-2.8,2.9C113.4,135.7,109.9,135.8,106.5,135.8z"/>
				<path class="st0" d="M611.6,271.3c-8.5,0-16.8,0-25.1,0c-1.9,0-2.2-1.1-2.6-2.6c-1.4-5.7-2.8-11.4-3.1-17.3
					c-1.7,0.1-1.8,1.7-2.4,2.6c-6.7,9.4-14.6,17.4-26.5,19.2c-25.8,3.9-43.5-9.5-46-34.5c-1.3-13.2,0.7-25.5,10.4-35.4
					c8.3-8.5,18.8-12.3,30.3-13.8c10.2-1.4,20.4-0.6,30.6-0.7c2.4,0,3.4-0.5,3.2-3.1c-0.4-7.2,0.7-14.5-1-21.7
					c-2.5-10.6-9.5-16.5-20.2-16.9c-10-0.4-17.7,4.9-20.6,14.2c-0.2,0.7-0.4,1.5-0.5,2.2c-1.2,6-1.2,6-7.2,6c-5.5,0-11-0.1-16.4,0.1
					c-2.4,0.1-3.1-0.8-3-3.1c0.3-11.8,5.7-21,14.5-28.4c17.9-15.1,49.2-15.2,67-0.1c9.1,7.7,13.3,17.9,14.1,29.5
					c1.2,18.2,0.2,36.4,0.5,54.7c0.2,13-0.8,26,1.8,38.9C610.1,264.4,610.8,267.7,611.6,271.3z M566.8,205.5c0,0.1,0,0.2,0,0.4
					c-4.6,0-9.3-0.6-13.7,0.1c-15.8,2.7-24.7,19.9-18.9,35.8c2.8,7.6,8.5,11.6,16.6,11.6c12.5-0.1,24.2-8.2,28.8-19.8
					c0.4-1.1,0.9-2.2,0.9-3.3c0.1-7.5,0-15,0.1-22.6c0-1.7-0.5-2.2-2.2-2.2C574.4,205.5,570.6,205.5,566.8,205.5z"/>
				<path class="st0" d="M211.9,250.3c-3.4,5.7-6.8,10-10.8,13.7c-12.4,11.4-26.8,12.5-41.7,7c-14.4-5.2-20.5-17.3-22.1-31.7
					c-1.2-11.3-0.3-22.5,7-32.1c8.4-11.1,20.2-15.8,33.5-17.7c10.2-1.4,20.4-0.6,30.6-0.7c2.6,0,3.6-0.5,3.5-3.3
					c-0.4-7.2,0.6-14.5-1.1-21.7c-2.7-11.1-10.6-17.2-21.9-16.7c-11,0.4-18.1,7-19.7,18.5c-0.4,2.7-1.1,3.9-4.1,3.8
					c-6.5-0.2-13-0.1-19.5,0.1c-2.8,0.1-2.7-1.6-2.6-3.5c0.3-11.8,5.7-21.1,14.7-28.2c16.4-12.8,34.9-14.1,53.9-7.5
					c13.3,4.6,21.7,14.3,25.3,28c1.5,5.6,2,11.3,2.1,17c0.1,23.8,0,47.7,0.2,71.5c0,7.3,1.4,14.5,3.4,21.5c0.6,2.3,0.3,2.9-2.1,2.9
					c-7.3-0.1-14.5-0.1-21.8,0c-2.1,0-2.8-0.8-3.3-2.7C213.8,262.9,212.4,257.3,211.9,250.3z M197.8,205.5c0,0.1,0,0.2,0,0.3
					c-4.5,0-9-0.6-13.3,0.1c-15.7,2.5-24.7,19.3-19.3,35.3c2.9,8.5,9,12.5,18.1,12c12.2-0.7,20.6-7.1,26.4-17.4
					c1.1-1.9,1.9-3.9,2-6.1c0-7.3,0-14.5,0-21.8c0-1.8-0.7-2.4-2.5-2.4C205.4,205.6,201.6,205.5,197.8,205.5z"/>
				<path class="st0" d="M490.7,271.3c-8.8,0-17.2,0-25.6,0c-1.9,0-1.9-1.3-2.2-2.5c-1.6-5.6-2.5-11.4-3.4-18
					c-3.3,4.7-6.2,8.8-9.9,12.3c-12.1,11.7-26.4,13.3-41.5,8.2c-14.6-4.9-21-16.5-23-31c-0.9-6.2-1-12.5,0.4-18.6
					c3.8-17.1,15.6-26.2,31.7-30.7c11-3.1,22.2-2.3,33.5-2.4c8.8,0,8.8,0,8.8-8.9c0-5.7,0.2-11.5-1.4-17.1
					c-3.2-11-11.4-16.6-23-15.6c-10.2,0.9-17.3,8.2-18.3,19.2c-0.2,2.2-0.8,3.1-3.1,3.1c-6.8-0.1-13.5,0-20.3,0.2
					c-2.3,0.1-2.8-0.9-2.7-2.9c0.1-10.9,4.9-19.5,12.6-26.9c18.9-18.3,56.1-17.1,73,2.5c7.7,9,10.2,19.8,10.3,31.3
					c0.1,10.2-0.2,20.4,0.1,30.6C486.8,226.4,484,249,490.7,271.3z M445.6,205.5c0,0.1,0,0.2,0,0.4c-4.6,0-9.2-0.6-13.7,0.1
					c-18.1,2.9-24.7,23.4-18.1,37.8c3.2,6.9,8.9,9.7,16.4,9.5c8.5-0.2,15.5-3.5,21.4-9.5c3.9-4,7.4-8.4,7.7-14.1
					c0.4-7.2,0-14.5,0.2-21.8c0-2.2-0.8-2.5-2.7-2.5C453,205.6,449.3,205.5,445.6,205.5z"/>
			</g>
		</g>
	</g>
	<g>
		<path class="st1" d="M825.1,236.5c0,5-0.9,9.7-2.7,14c-1.8,4.4-4.3,8.2-7.5,11.4c-3.2,3.2-6.9,5.8-11.2,7.7
			c-4.3,1.9-9,2.9-13.9,2.9c-5,0-9.6-0.9-13.9-2.8c-4.3-1.9-8-4.4-11.2-7.7c-3.2-3.3-5.7-7.1-7.6-11.5c-1.9-4.4-2.8-9-2.8-14
			c0-5,0.9-9.7,2.8-14c1.9-4.4,4.4-8.2,7.6-11.4c3.2-3.2,7-5.8,11.3-7.6c4.3-1.9,8.9-2.8,13.9-2.8c4.9,0,9.5,1,13.8,2.9
			c4.3,1.9,8,4.5,11.2,7.7c3.2,3.2,5.7,7,7.5,11.4C824.2,227,825.1,231.6,825.1,236.5z M818.7,236.5c0-4.1-0.7-8-2.2-11.7
			c-1.5-3.7-3.5-6.9-6.1-9.7c-2.6-2.8-5.6-5-9.2-6.7c-3.6-1.6-7.4-2.5-11.6-2.5c-4,0-7.8,0.8-11.3,2.5c-3.5,1.6-6.6,3.9-9.2,6.7
			c-2.6,2.8-4.6,6.1-6.1,9.7c-1.5,3.7-2.2,7.6-2.2,11.7c0,4,0.7,7.9,2.2,11.6c1.5,3.7,3.5,7,6.1,9.8c2.6,2.8,5.6,5.1,9.2,6.8
			c3.6,1.7,7.4,2.6,11.6,2.6c4.1,0,8-0.8,11.6-2.5c3.6-1.6,6.6-3.9,9.2-6.7c2.6-2.8,4.5-6.1,6-9.8
			C818,244.6,818.7,240.7,818.7,236.5z M799.1,257.4c-1-1.3-1.9-4.7-2.9-10.4c-0.9-4.7-3.8-7-8.8-7h-4.6v17.4h-6.1v-40
			c4.8-0.6,8.5-1,11.2-1c5.1,0,9,0.9,11.8,2.6c2.8,1.8,4.1,4.6,4.1,8.7c0,4.9-2.6,8.1-7.8,9.7v0.3c1.8,0.3,3.2,1.3,4.1,3
			c1,1.7,1.7,3.6,2.3,5.7c0.6,2.1,1.1,4.2,1.4,6.2c0.4,2,0.8,3.6,1.4,4.6H799.1z M797.5,228.4c0-4.9-3.3-7.3-10-7.3
			c-0.9,0-1.6,0-2.4,0.1c-0.7,0.1-1.5,0.1-2.2,0.2v14h4.8C794.2,235.4,797.5,233.1,797.5,228.4z"/>
	</g>
</g>
</svg>
